<mxfile host="app.diagrams.net" modified="2023-12-21T10:03:21.678Z" agent="Mozilla/5.0 (Windows NT 10.0; Win64; x64) AppleWebKit/537.36 (KHTML, like Gecko) Chrome/120.0.0.0 Safari/537.36" version="22.1.11" etag="NsPi3xrDIyLg7b3Vahem" type="github">
  <diagram name="第 1 页" id="Mc4-rws_Wyc5wxqyYoyp">
    <mxGraphModel>
      <root>
        <mxCell id="0" />
        <mxCell id="1" parent="0" />
      </root>
    </mxGraphModel>
  </diagram>
</mxfile>
